<svg height="512pt" viewBox="0 0 512 512" width="512pt" xmlns="http://www.w3.org/2000/svg" xmlns:xlink="http://www.w3.org/1999/xlink"><linearGradient id="a" gradientUnits="userSpaceOnUse" x1="256" x2="256" y1="0" y2="512"><stop offset="0" stop-color="#2af598"/><stop offset="1" stop-color="#009efd"/></linearGradient><path d="m278.683594 132.183594c-7.507813 7.484375-14.042969 15.097656-19.613282 22.769531-28.652343.902344-58.007812 15.664063-85.625 43.207031l-48.0625 47.9375c-28.378906 28.304688-43.382812 58.867188-43.382812 88.382813 0 24.542969 10.046875 47.007812 29.855469 66.765625 19.683593 19.632812 42.558593 29.757812 66.863281 29.757812 4.855469 0 9.773438-.40625 14.730469-1.21875 24.804687-4.074218 50.328125-18.605468 73.8125-42.03125l48.0625-47.933594c7.507812-7.488281 14.042969-15.097656 19.613281-22.773437 28.648438-.90625 58.007812-15.664063 85.621094-43.207031l48.058594-47.9375c28.382812-28.304688 43.382812-58.867188 43.382812-88.378906 0-24.546876-10.042969-47.011719-29.855469-66.769532-23.617187-23.554687-51.832031-33.421875-81.589843-28.539062-24.804688 4.074218-50.328126 18.605468-73.8125 42.03125zm175.214844-33.109375c12.179687 12.152343 18.101562 24.726562 18.101562 38.449219 0 18.386718-11.234375 39.714843-31.628906 60.058593l-48.058594 47.933594c-11.914062 11.886719-24.058594 20.59375-35.789062 25.820313 6.464843-29.089844-1.140626-57.417969-23.21875-81.78125l-29.644532 26.855468c30.902344 34.101563 8.039063 70.53125-16.582031 95.085938l-48.0625 47.9375c-25.648437 25.578125-63.628906 48.683594-98.914063 13.492187-12.179687-12.152343-18.101562-24.726562-18.101562-38.445312 0-18.390625 11.234375-39.71875 31.632812-60.0625l48.058594-47.933594c11.914063-11.882813 24.058594-20.589844 35.785156-25.8125-6.46875 29.089844 1.140626 57.417969 23.222657 81.777344l29.636719-26.863281c-30.898438-34.089844-8.03125-70.519532 16.59375-95.082032l48.058593-47.9375c25.648438-25.578125 63.625-48.683594 98.910157-13.492187zm43.632812 154.140625c5.179688-5.164063 9.996094-10.425782 14.46875-15.757813v214.542969c0 33.085938-26.914062 60-60 60h-392c-33.085938 0-60-26.914062-60-60v-392c0-33.085938 26.914062-60 60-60h294.039062l-40.035156 40h-254.003906c-11.027344 0-20 8.972656-20 20v392c0 11.027344 8.972656 20 20 20h392c11.027344 0 20-8.972656 20-20v-173.320312zm0 0" fill="url(#a)"/></svg>